<mxfile host="app.diagrams.net" modified="2021-11-30T22:40:04.183Z" agent="5.0 (Windows)" etag="etFVADMuJ5Y2NfWaQ_Ng" version="15.8.8" type="github">
  <diagram id="syHBO3hxxw6LWe2jbtc9" name="Page-1">
    <mxGraphModel dx="1808" dy="546" grid="1" gridSize="10" guides="1" tooltips="1" connect="1" arrows="1" fold="1" page="1" pageScale="1" pageWidth="827" pageHeight="1169" math="0" shadow="0">
      <root>
        <mxCell id="0" />
        <mxCell id="1" parent="0" />
        <mxCell id="X5vNwna5Td26JB8VLhc4-1" value="" style="strokeWidth=2;html=1;shape=mxgraph.flowchart.start_1;whiteSpace=wrap;fillColor=default;align=center;" parent="1" vertex="1">
          <mxGeometry x="-190" y="50" width="40" height="30" as="geometry" />
        </mxCell>
        <mxCell id="X5vNwna5Td26JB8VLhc4-2" value="" style="strokeWidth=2;html=1;shape=mxgraph.flowchart.terminator;whiteSpace=wrap;fillColor=default;align=center;" parent="1" vertex="1">
          <mxGeometry x="-190" y="90" width="40" height="30" as="geometry" />
        </mxCell>
        <mxCell id="X5vNwna5Td26JB8VLhc4-3" value="" style="rounded=1;whiteSpace=wrap;html=1;absoluteArcSize=1;arcSize=14;strokeWidth=2;fillColor=default;align=center;" parent="1" vertex="1">
          <mxGeometry x="-190" y="130" width="40" height="30" as="geometry" />
        </mxCell>
        <mxCell id="X5vNwna5Td26JB8VLhc4-4" value="" style="verticalLabelPosition=bottom;verticalAlign=top;html=1;shape=process;whiteSpace=wrap;rounded=1;size=0.14;arcSize=6;fillColor=default;" parent="1" vertex="1">
          <mxGeometry x="-190" y="170" width="40" height="30" as="geometry" />
        </mxCell>
        <mxCell id="X5vNwna5Td26JB8VLhc4-5" value="&lt;div align=&quot;left&quot;&gt;Start&lt;/div&gt;" style="text;html=1;align=left;verticalAlign=middle;resizable=0;points=[];autosize=1;strokeColor=none;fillColor=none;" parent="1" vertex="1">
          <mxGeometry x="-140" y="55" width="40" height="20" as="geometry" />
        </mxCell>
        <mxCell id="X5vNwna5Td26JB8VLhc4-6" value="&lt;div align=&quot;left&quot;&gt;End&lt;/div&gt;" style="text;html=1;align=left;verticalAlign=middle;resizable=0;points=[];autosize=1;strokeColor=none;fillColor=none;" parent="1" vertex="1">
          <mxGeometry x="-140" y="95" width="40" height="20" as="geometry" />
        </mxCell>
        <mxCell id="X5vNwna5Td26JB8VLhc4-7" value="&lt;div align=&quot;left&quot;&gt;Proceso&lt;/div&gt;" style="text;html=1;align=left;verticalAlign=middle;resizable=0;points=[];autosize=1;strokeColor=none;fillColor=none;" parent="1" vertex="1">
          <mxGeometry x="-140" y="135" width="60" height="20" as="geometry" />
        </mxCell>
        <mxCell id="X5vNwna5Td26JB8VLhc4-8" value="Función" style="text;html=1;align=left;verticalAlign=middle;resizable=0;points=[];autosize=1;strokeColor=none;fillColor=none;" parent="1" vertex="1">
          <mxGeometry x="-140" y="175" width="60" height="20" as="geometry" />
        </mxCell>
        <mxCell id="X5vNwna5Td26JB8VLhc4-9" value="" style="strokeWidth=2;html=1;shape=mxgraph.flowchart.decision;whiteSpace=wrap;fillColor=default;align=left;" parent="1" vertex="1">
          <mxGeometry x="-190" y="210" width="40" height="30" as="geometry" />
        </mxCell>
        <mxCell id="X5vNwna5Td26JB8VLhc4-10" value="Condición" style="text;html=1;align=left;verticalAlign=middle;resizable=0;points=[];autosize=1;strokeColor=none;fillColor=none;" parent="1" vertex="1">
          <mxGeometry x="-140" y="215" width="70" height="20" as="geometry" />
        </mxCell>
        <mxCell id="X5vNwna5Td26JB8VLhc4-11" value="" style="shape=parallelogram;html=1;strokeWidth=2;perimeter=parallelogramPerimeter;whiteSpace=wrap;rounded=1;arcSize=12;size=0.23;fillColor=default;align=center;" parent="1" vertex="1">
          <mxGeometry x="-190" y="250" width="40" height="30" as="geometry" />
        </mxCell>
        <mxCell id="X5vNwna5Td26JB8VLhc4-12" value="Return" style="text;html=1;align=left;verticalAlign=middle;resizable=0;points=[];autosize=1;strokeColor=none;fillColor=none;" parent="1" vertex="1">
          <mxGeometry x="-140" y="255" width="50" height="20" as="geometry" />
        </mxCell>
        <mxCell id="X5vNwna5Td26JB8VLhc4-15" style="edgeStyle=orthogonalEdgeStyle;rounded=0;orthogonalLoop=1;jettySize=auto;html=1;exitX=0.5;exitY=1;exitDx=0;exitDy=0;exitPerimeter=0;entryX=0.5;entryY=0;entryDx=0;entryDy=0;" parent="1" source="X5vNwna5Td26JB8VLhc4-13" target="X5vNwna5Td26JB8VLhc4-14" edge="1">
          <mxGeometry relative="1" as="geometry" />
        </mxCell>
        <mxCell id="X5vNwna5Td26JB8VLhc4-13" value="Start" style="strokeWidth=2;html=1;shape=mxgraph.flowchart.start_1;whiteSpace=wrap;fillColor=default;align=center;" parent="1" vertex="1">
          <mxGeometry x="90" y="130" width="100" height="60" as="geometry" />
        </mxCell>
        <mxCell id="X5vNwna5Td26JB8VLhc4-17" style="edgeStyle=orthogonalEdgeStyle;rounded=0;orthogonalLoop=1;jettySize=auto;html=1;exitX=0.5;exitY=1;exitDx=0;exitDy=0;entryX=0.5;entryY=0;entryDx=0;entryDy=0;" parent="1" source="X5vNwna5Td26JB8VLhc4-14" target="X5vNwna5Td26JB8VLhc4-16" edge="1">
          <mxGeometry relative="1" as="geometry" />
        </mxCell>
        <mxCell id="X5vNwna5Td26JB8VLhc4-14" value="&lt;div&gt;int[] array = new int[21]&lt;/div&gt;int i = array.length" style="rounded=1;whiteSpace=wrap;html=1;" parent="1" vertex="1">
          <mxGeometry x="70" y="220" width="140" height="50" as="geometry" />
        </mxCell>
        <mxCell id="X5vNwna5Td26JB8VLhc4-24" style="edgeStyle=orthogonalEdgeStyle;rounded=0;orthogonalLoop=1;jettySize=auto;html=1;exitX=0.5;exitY=1;exitDx=0;exitDy=0;entryX=0.5;entryY=0;entryDx=0;entryDy=0;" parent="1" source="X5vNwna5Td26JB8VLhc4-16" target="X5vNwna5Td26JB8VLhc4-23" edge="1">
          <mxGeometry relative="1" as="geometry" />
        </mxCell>
        <mxCell id="X5vNwna5Td26JB8VLhc4-39" style="edgeStyle=orthogonalEdgeStyle;rounded=0;orthogonalLoop=1;jettySize=auto;html=1;exitX=1;exitY=0.5;exitDx=0;exitDy=0;endArrow=classic;endFill=1;" parent="1" source="X5vNwna5Td26JB8VLhc4-16" edge="1">
          <mxGeometry relative="1" as="geometry">
            <mxPoint x="140" y="770" as="targetPoint" />
            <Array as="points">
              <mxPoint x="290" y="330" />
              <mxPoint x="290" y="740" />
              <mxPoint x="140" y="740" />
            </Array>
          </mxGeometry>
        </mxCell>
        <mxCell id="X5vNwna5Td26JB8VLhc4-16" value="i &amp;gt; 0" style="rhombus;whiteSpace=wrap;html=1;" parent="1" vertex="1">
          <mxGeometry x="100" y="300" width="80" height="60" as="geometry" />
        </mxCell>
        <mxCell id="X5vNwna5Td26JB8VLhc4-20" value="No" style="text;html=1;align=center;verticalAlign=middle;resizable=0;points=[];autosize=1;strokeColor=none;fillColor=none;" parent="1" vertex="1">
          <mxGeometry x="180" y="310" width="30" height="20" as="geometry" />
        </mxCell>
        <mxCell id="X5vNwna5Td26JB8VLhc4-21" value="Si" style="text;html=1;align=center;verticalAlign=middle;resizable=0;points=[];autosize=1;strokeColor=none;fillColor=none;" parent="1" vertex="1">
          <mxGeometry x="110" y="360" width="30" height="20" as="geometry" />
        </mxCell>
        <mxCell id="X5vNwna5Td26JB8VLhc4-26" style="edgeStyle=orthogonalEdgeStyle;rounded=0;orthogonalLoop=1;jettySize=auto;html=1;exitX=0.5;exitY=1;exitDx=0;exitDy=0;" parent="1" source="X5vNwna5Td26JB8VLhc4-23" target="X5vNwna5Td26JB8VLhc4-25" edge="1">
          <mxGeometry relative="1" as="geometry" />
        </mxCell>
        <mxCell id="X5vNwna5Td26JB8VLhc4-23" value="long potencia = (long) Math.pow(10, i - 1)" style="rounded=1;whiteSpace=wrap;html=1;" parent="1" vertex="1">
          <mxGeometry x="20" y="390" width="240" height="50" as="geometry" />
        </mxCell>
        <mxCell id="X5vNwna5Td26JB8VLhc4-30" style="edgeStyle=orthogonalEdgeStyle;rounded=0;orthogonalLoop=1;jettySize=auto;html=1;exitX=0.5;exitY=1;exitDx=0;exitDy=0;" parent="1" source="X5vNwna5Td26JB8VLhc4-25" target="X5vNwna5Td26JB8VLhc4-29" edge="1">
          <mxGeometry relative="1" as="geometry" />
        </mxCell>
        <mxCell id="X5vNwna5Td26JB8VLhc4-36" style="edgeStyle=orthogonalEdgeStyle;rounded=0;orthogonalLoop=1;jettySize=auto;html=1;exitX=0;exitY=0.5;exitDx=0;exitDy=0;" parent="1" source="X5vNwna5Td26JB8VLhc4-25" target="X5vNwna5Td26JB8VLhc4-35" edge="1">
          <mxGeometry relative="1" as="geometry" />
        </mxCell>
        <mxCell id="X5vNwna5Td26JB8VLhc4-25" value="n / potencia != 0" style="rhombus;whiteSpace=wrap;html=1;" parent="1" vertex="1">
          <mxGeometry x="80" y="470" width="120" height="60" as="geometry" />
        </mxCell>
        <mxCell id="X5vNwna5Td26JB8VLhc4-27" value="Si" style="text;html=1;align=center;verticalAlign=middle;resizable=0;points=[];autosize=1;strokeColor=none;fillColor=none;" parent="1" vertex="1">
          <mxGeometry x="110" y="530" width="30" height="20" as="geometry" />
        </mxCell>
        <mxCell id="X5vNwna5Td26JB8VLhc4-28" value="No" style="text;html=1;align=center;verticalAlign=middle;resizable=0;points=[];autosize=1;strokeColor=none;fillColor=none;" parent="1" vertex="1">
          <mxGeometry x="50" y="480" width="30" height="20" as="geometry" />
        </mxCell>
        <mxCell id="X5vNwna5Td26JB8VLhc4-32" style="edgeStyle=orthogonalEdgeStyle;rounded=0;orthogonalLoop=1;jettySize=auto;html=1;exitX=0.5;exitY=1;exitDx=0;exitDy=0;" parent="1" source="X5vNwna5Td26JB8VLhc4-29" target="X5vNwna5Td26JB8VLhc4-31" edge="1">
          <mxGeometry relative="1" as="geometry" />
        </mxCell>
        <mxCell id="X5vNwna5Td26JB8VLhc4-29" value="&lt;div&gt;array [array.length - i] = (int) (n / potencia)&lt;/div&gt;n = n % potencia" style="rounded=1;whiteSpace=wrap;html=1;" parent="1" vertex="1">
          <mxGeometry x="20" y="550" width="240" height="50" as="geometry" />
        </mxCell>
        <mxCell id="KQHGiaspKalUTYfbz2gJ-1" style="edgeStyle=orthogonalEdgeStyle;rounded=0;orthogonalLoop=1;jettySize=auto;html=1;exitX=0;exitY=0.5;exitDx=0;exitDy=0;entryX=0;entryY=0.5;entryDx=0;entryDy=0;" parent="1" source="X5vNwna5Td26JB8VLhc4-31" target="X5vNwna5Td26JB8VLhc4-16" edge="1">
          <mxGeometry relative="1" as="geometry">
            <Array as="points">
              <mxPoint x="-280" y="685" />
              <mxPoint x="-280" y="350" />
              <mxPoint y="350" />
              <mxPoint y="330" />
            </Array>
          </mxGeometry>
        </mxCell>
        <mxCell id="X5vNwna5Td26JB8VLhc4-31" value="i--" style="rounded=1;whiteSpace=wrap;html=1;" parent="1" vertex="1">
          <mxGeometry x="100" y="660" width="80" height="50" as="geometry" />
        </mxCell>
        <mxCell id="X5vNwna5Td26JB8VLhc4-38" style="edgeStyle=orthogonalEdgeStyle;rounded=0;orthogonalLoop=1;jettySize=auto;html=1;exitX=0.5;exitY=1;exitDx=0;exitDy=0;endArrow=none;endFill=0;" parent="1" source="X5vNwna5Td26JB8VLhc4-35" edge="1">
          <mxGeometry relative="1" as="geometry">
            <mxPoint x="140" y="630" as="targetPoint" />
            <Array as="points">
              <mxPoint x="-130" y="630" />
            </Array>
          </mxGeometry>
        </mxCell>
        <mxCell id="X5vNwna5Td26JB8VLhc4-35" value="array [array.length - 1] = 0" style="rounded=1;whiteSpace=wrap;html=1;" parent="1" vertex="1">
          <mxGeometry x="-250" y="550" width="240" height="50" as="geometry" />
        </mxCell>
        <mxCell id="X5vNwna5Td26JB8VLhc4-42" style="edgeStyle=orthogonalEdgeStyle;rounded=0;orthogonalLoop=1;jettySize=auto;html=1;exitX=0.5;exitY=1;exitDx=0;exitDy=0;entryX=0.5;entryY=0;entryDx=0;entryDy=0;entryPerimeter=0;endArrow=classic;endFill=1;" parent="1" source="X5vNwna5Td26JB8VLhc4-40" target="X5vNwna5Td26JB8VLhc4-41" edge="1">
          <mxGeometry relative="1" as="geometry" />
        </mxCell>
        <mxCell id="X5vNwna5Td26JB8VLhc4-40" value="array" style="shape=parallelogram;html=1;strokeWidth=2;perimeter=parallelogramPerimeter;whiteSpace=wrap;rounded=1;arcSize=12;size=0.23;" parent="1" vertex="1">
          <mxGeometry x="90" y="770" width="100" height="50" as="geometry" />
        </mxCell>
        <mxCell id="X5vNwna5Td26JB8VLhc4-41" value="End" style="strokeWidth=2;html=1;shape=mxgraph.flowchart.terminator;whiteSpace=wrap;" parent="1" vertex="1">
          <mxGeometry x="90" y="850" width="100" height="60" as="geometry" />
        </mxCell>
        <mxCell id="KQHGiaspKalUTYfbz2gJ-2" value="" style="strokeWidth=2;html=1;shape=mxgraph.flowchart.direct_data;whiteSpace=wrap;" parent="1" vertex="1">
          <mxGeometry x="-190" y="290" width="40" height="30" as="geometry" />
        </mxCell>
        <mxCell id="KQHGiaspKalUTYfbz2gJ-3" value="Datos Externos" style="text;html=1;align=left;verticalAlign=middle;resizable=0;points=[];autosize=1;strokeColor=none;fillColor=none;" parent="1" vertex="1">
          <mxGeometry x="-140" y="295" width="100" height="20" as="geometry" />
        </mxCell>
        <mxCell id="KQHGiaspKalUTYfbz2gJ-5" style="edgeStyle=orthogonalEdgeStyle;rounded=0;orthogonalLoop=1;jettySize=auto;html=1;exitX=0.5;exitY=1;exitDx=0;exitDy=0;exitPerimeter=0;entryX=0.5;entryY=0;entryDx=0;entryDy=0;entryPerimeter=0;" parent="1" source="KQHGiaspKalUTYfbz2gJ-4" target="X5vNwna5Td26JB8VLhc4-13" edge="1">
          <mxGeometry relative="1" as="geometry" />
        </mxCell>
        <mxCell id="KQHGiaspKalUTYfbz2gJ-4" value="long n" style="strokeWidth=2;html=1;shape=mxgraph.flowchart.direct_data;whiteSpace=wrap;" parent="1" vertex="1">
          <mxGeometry x="80" y="50" width="120" height="50" as="geometry" />
        </mxCell>
      </root>
    </mxGraphModel>
  </diagram>
</mxfile>
